<?xml version="1.0" encoding="UTF-8" standalone="no"?>
<svg
   xmlns:dc="http://purl.org/dc/elements/1.1/"
   xmlns:cc="http://creativecommons.org/ns#"
   xmlns:rdf="http://www.w3.org/1999/02/22-rdf-syntax-ns#"
   xmlns:svg="http://www.w3.org/2000/svg"
   xmlns="http://www.w3.org/2000/svg"
   xmlns:sodipodi="http://sodipodi.sourceforge.net/DTD/sodipodi-0.dtd"
   xmlns:inkscape="http://www.inkscape.org/namespaces/inkscape"
   width="238.507"
   height="147.133"
   viewBox="0 0 63.105 38.929"
   version="1.1"
   id="svg66"
   sodipodi:docname="me.svg"
   inkscape:version="0.92.4 (5da689c313, 2019-01-14)">
  <metadata
     id="metadata70">
    <rdf:RDF>
      <cc:Work
         rdf:about="">
        <dc:format>image/svg+xml</dc:format>
        <dc:type
           rdf:resource="http://purl.org/dc/dcmitype/StillImage" />
      </cc:Work>
    </rdf:RDF>
  </metadata>
  <sodipodi:namedview
     pagecolor="#ffffff"
     bordercolor="#666666"
     borderopacity="1"
     objecttolerance="10"
     gridtolerance="10"
     guidetolerance="10"
     inkscape:pageopacity="0"
     inkscape:pageshadow="2"
     inkscape:window-width="1920"
     inkscape:window-height="1017"
     id="namedview68"
     showgrid="false"
     showguides="true"
     inkscape:guide-bbox="true"
     inkscape:zoom="1.5345461"
     inkscape:cx="283.2372"
     inkscape:cy="37.065309"
     inkscape:window-x="-8"
     inkscape:window-y="-8"
     inkscape:window-maximized="1"
     inkscape:current-layer="svg66">
    <sodipodi:guide
       position="-4.9139139,5.603593"
       orientation="1,0"
       id="guide894"
       inkscape:locked="false" />
  </sodipodi:namedview>
  <defs
     id="defs12">
    <linearGradient
       id="A"
       x1="118.06"
       x2="136.14"
       y1="123.23"
       y2="157.95"
       gradientUnits="userSpaceOnUse">
      <stop
         stop-color="#1db9d3"
         offset="0"
         id="stop2"
         style="stop-color:#9ddc67;stop-opacity:1" />
      <stop
         stop-color="#0a11a1"
         offset="1"
         id="stop4"
         style="stop-color:#2b9783;stop-opacity:1" />
    </linearGradient>
    <linearGradient
       id="B"
       x1="118.93"
       x2="126.62"
       y1="110.07"
       y2="110.92"
       gradientUnits="userSpaceOnUse">
      <stop
         stop-color="#ffd1b6"
         offset="0"
         id="stop7" />
      <stop
         stop-color="#dd9d76"
         offset="1"
         id="stop9" />
    </linearGradient>
  </defs>
  <path
     d="M28.9.001c-5.936.022-11.862 1.432-15.764 5.325-2.814 2.81-.232 6.982-2.096 11.742C9.25 21.64 3.93 23.97 3.7 27.773c.437 9.388 8.204 11.475 13.633 11.12a37.79 37.79 0 0 1 1.539-.087c-.177-3.244 2.326-9.552 4.155-11.666 1.12-1.282 4.8-1.548 5.11-3.47.463-2.89-1.45-2.888-2.24-4.857-.523-1.305.453-1.29.23-2.394l-.488-2.3c-.12-.51.294-1.2.045-1.575-.253-.39-1.14-.186-1.3-.622-.246-.72.556-.926.728-1.37.16-.413-.64-.4-.828-.582-.342-.313 1.537-1.53 1.698-1.7.39-.394-1.146-.81-.656-1.053.75-.374 1.778-.07 2.593-.252 2.006-.45.657-.464 1.11-.932.308-.32 2.24.263 2.6.38.767.255 1.416-.597 1.538-.534 1.856.955 3.77 1.347 5.093 3.37.657 1.005 1.29 1.8 1.31 2.925.016.894-.294 1.973.1 2.364.508.504.476.622.738 1.4.896 2.688-3.95 4.826-.73 7.556 1.642 1.392 5.295.685 7.333 2.445.944.815 2.887 7.217 3.12 8.673.165 1.038.147 2.146.406 3.216 1.093-.4 1.99-.912 2.63-1.557 5.118-5.157-1.168-6.28.73-11.627s5.9-4.73 6.74-8.602C62.325 8.257 46.84 2.814 37.948.95 35.122.357 32-.01 28.9 0z"
     fill="#fff475"
     id="path14"
     style="fill:#ffeb45;fill-opacity:1" />
  <circle
     cx="52.604713"
     cy="14.777565"
     r="2.3947315"
     id="circle16"
     style="fill:#ff3c54;stroke-width:0.41887903" />
  <g
     transform="translate(-85.52 -89.564)"
     id="g28">
    <path
       d="M116.3 112.7c0 .21-.326 2.733-.326 2.733l2.332 1.5c3.107.038 4.1-1.47 5.885-2.52-.82-.574-1.47-1.233-1.674-2.183l-.45-1.498.582-1.992 1.36-1.168.265-1.658-.33-1.158-.525.2-.477.84-.05 1.52-.234.154-.246-1.384-.107-.76-.73-1.816-.255-.265.2-1.534-1.768-1.002-1.413.08-1.078.857-2.49.063-1.052.362-.255.64.23 1.15-.283.87-.122 1.958-.507.094-.255.467.67 1.24.676.65.484-.164 1.182 2.124.798 1.178z"
       fill="url(#B)"
       id="path22" />
    <path
       d="M106.22 127.96l2.085-8.556.85-1.298 2.597-1.088 4.347-1.793c.275.43.913.506 1.303.725 3.138.84 5.223-1.307 6.305-1.92 1.44 1.415 4.402 1.648 6.33 2.39l1.58.942 1.643 4.53 1.1 6.143z"
       fill="url(#A)"
       id="path24" />
    <path
       d="M112.8 105.16l-.268-3.306.27-1.254-.022-1.218 1.5-1.74 2.784-.246 2.337.718 2.838 1.614 1.228 1.47.165 2.478-.25 1.475-.377 1.44-.104.85-.35.088-.183-1.23.017-1.097-.627-1.217-.32-.686.063-1.416-.396-.567-1.965-.615-1.734.915-2.9.204-.837.96.047 1.173-.404 1.087z"
       fill="#5e3822"
       id="path26" />
  </g>
  <g
     stroke="#000"
     id="g44">
    <g
       fill="none"
       stroke-width=".6"
       id="g34">
      <path
         d="M36.5 21.496c.17 1.014.658 1.964 1.425 2.777m-7.195-1.177c.163.952-.053 1.94-.328 2.802m-2.582-8.952c-1.545.555-.14 2.123.687 2.583m1.353 1.777c.503.878 1.03 1.656 1.906 2.1"
         id="path30" />
      <path
         d="M38.04 14.876c-.065-1.07.164-2.205-.203-3.217-.104-.287-.397-.757-.604-.97-1.94-2-7.055-4.58-9.666-1.216-.4.516-.157 1.213-.308 1.8-.893 3.523.805 6.237 2.08 9.258m8.16-4.155c-.024.256.02 1.643-.507 1.697-.01.001-.028-.665-.028-.736 0-.568-.207-1.042-.207-1.63 0-.64-.605-1.3-.823-1.88-.2-.525.34-1.27 0-1.78-.236-.354-.842-.57-1.2-.692-1.773-.586-1.837.363-3.352.666-.976.195-1.963-.2-2.843.368-.213.138-.433.35-.47.617-.08.565.153 1.13.075 1.67-.05.34-.514 1.23-.3 1.584.238.392.524 1.044.6 1.53m9.045-1.314c-.115-.44.465-1.47.84-1.3.216.098.313.5.346.724.215 1.484-.384 2.32-1.42 3.127-.333.26.12 2.695-2.405 3.943"
         id="path32" />
    </g>
    <path
       d="M36.55 10.09c-1.2-.96-1.225-1.343-3.065-2.557l.046.926c-.95-.746-2.107-.836-3.242-.992l.048.494c-.55-.166-1.535-.13-2.3-.022l.656.587c-.498.043-1.034.035-1.86.374.538.144.793.197 1.174.6l-1.467.668c.802.26 1.264.266 1.67.955"
       fill="#5e3822"
       stroke-width=".6"
       id="path36" />
    <g
       fill="none"
       stroke-width=".6"
       id="g42">
      <path
         d="M30.2 26.136c-1.13.525-2.15.618-3.432 1.042-1 .33-2.384.716-3.165 1.497-1.064 1.064-2.615 7.845-2.898 9.578m5.135-3.637c-.02.942-.3 2.428-.314 3.316m16.414-4.556c-.03.55.1 4.185.185 4.7m-2.025-12.4c1.554.376 5.453.966 6.298 2.656 1.055 2.1 1.698 6.406 2.1 8.773"
         id="path38" />
      <path
         d="M31.23 26.086c2.182 1.094 4.68.54 6.446-1.4m4.254 8.72c.03.307.443 2.222.827 4.1"
         id="path40" />
    </g>
  </g>
  <g
     opacity=".22"
     id="g64">
    <path
       d="M25.76 34.686l-.64-.503-.364 3.72.887-.05zm16.5 1.4L43.982 34c.023.074.094.05-.064.495l-1.414 2.343z"
       id="path46" />
    <path
       d="M45.7 27.646c-.928-.696-1.095-1.5-.8 1.808.4 2.657 2.28 5.657 2.345 8.853l1.326-1.235-1.925-8.28z"
       fill="#564443"
       id="path48" />
    <path
       d="M42.5 36.896l1.305-.623c.023.074.64-.356.48.09l-1.74 1.066z"
       id="path50" />
    <g
       stroke="#000"
       id="g56">
      <path
         d="M26.04 34.716c-.462.1-1.364-.867-1.734-.487-.07.073.388.318.463.388.222.208.22.545.343.794.127.26.435.485.594.71"
         stroke-width=".228"
         id="path52" />
      <path
         d="M30 26.076c2.402 3.08 6.597 1.49 8.75-1.133"
         fill="none"
         stroke-width=".465"
         id="path54" />
    </g>
    <path
       d="M34.52 33.606c-.001.248-.483 3.223-.504 3.214.176 1.235.22.642.628 1.683l-.756-.04c-.326-.986-.335-.46-.43-1.575.35-1.096.604-2.235 1.065-3.28z"
       id="path58" />
    <path
       d="M34.1 23.276c1.166-.245 1.915-.86 2.267-1.336l1.045 1.808.764.726-1.34.968c-1.246.117-2.847-.662-2.735-2.165z"
       fill-opacity=".6"
       id="path60" />
    <path
       d="M27.83 10.466c-.03.1.525 1.76 1 1.632L28 13.375l-.06 2-.53.182-.485-3.2zm-3.73 17.97l-.133.13c-.283.274.275.382.506.56.03.024.33.225.32.198-.14-.394-.153-1.223-.694-.888zm3 .74c.176.227.12.313.247.594.1.225 1.066.872.84 1.12-.156.17-.752-.44-.946-.508-.498-.178-.575-.642-.848-.97l-.83-1.082zm.7-1.7c.322.128.2.437.5.637.255.16 1.67.386 1.797.414-.01.225-.982-.064-1.202-.04-.566.06-.978-.33-1.458-.505l-1.528-.615zm15.15 4.77c.276-.153.358-.105.683-.215.26-.088 1.136-.93 1.36-.73.154.137-.612.656-.722.825-.284.435-.796.5-1.198.74l-1.316.724zm-16.72 1.7c-.122.156-.1.2-.2.4-.08.153-.685.6-.584.77.07.108.465-.314.58-.366.296-.133.387-.443.573-.668l.576-.743z"
       id="path62" />
  </g>
  <path
     style="opacity:1;fill:none;fill-opacity:1;stroke:#00ffd5;stroke-width:1.64041924;stroke-linecap:butt;stroke-linejoin:round;stroke-miterlimit:4;stroke-dasharray:none;stroke-dashoffset:0;stroke-opacity:1"
     id="path886"
     sodipodi:type="arc"
     sodipodi:cx="56.417564"
     sodipodi:cy="21.02062"
     sodipodi:rx="4.2976131"
     sodipodi:ry="4.2976131"
     sodipodi:start="0"
     sodipodi:end="3.1055722"
     sodipodi:open="true"
     d="m 60.715178,21.02062 a 4.2976131,4.2976131 0 0 1 -4.220217,4.296917 4.2976131,4.2976131 0 0 1 -4.372222,-4.142148" />
  <path
     style="fill:none;stroke:#b52ed0;stroke-width:1.05440676;stroke-linecap:butt;stroke-linejoin:miter;stroke-miterlimit:4;stroke-dasharray:none;stroke-opacity:1"
     d="m 1.8003505,28.593375 1.737528,-1.737528 1.757271,1.757272 1.816507,-1.816506 1.698037,1.698039 1.7177845,-1.717783"
     id="path890"
     inkscape:connector-curvature="0" />
  <path
     inkscape:connector-curvature="0"
     id="path892"
     d="m 1.8003505,31.986868 1.737528,-1.737527 1.757271,1.757271 1.816507,-1.816505 1.698037,1.698038 1.7177845,-1.717782"
     style="fill:none;stroke:#b52ed0;stroke-width:1.05440676;stroke-linecap:butt;stroke-linejoin:miter;stroke-miterlimit:4;stroke-dasharray:none;stroke-opacity:1" />
  <circle
     style="fill:#ff3c54;stroke-width:0.41887903"
     id="circle896"
     r="2.3947315"
     cy="6.3108878"
     cx="52.604713" />
  <path
     sodipodi:type="star"
     style="opacity:1;fill:#4648fe;fill-opacity:1;stroke:none;stroke-width:1.93146145;stroke-linecap:round;stroke-linejoin:round;stroke-miterlimit:4;stroke-dasharray:none;stroke-dashoffset:0;stroke-opacity:1"
     id="path850"
     sodipodi:sides="3"
     sodipodi:cx="8.2760363"
     sodipodi:cy="11.773127"
     sodipodi:r1="5.6904554"
     sodipodi:r2="2.8452277"
     sodipodi:arg1="0"
     sodipodi:arg2="1.0471976"
     inkscape:flatsided="true"
     inkscape:rounded="0"
     inkscape:randomized="0"
     d="m 13.966492,11.773127 -8.5356835,4.928079 0,-9.8561584 z"
     inkscape:transform-center-x="1.2224161"
     transform="rotate(55.444553,14.209839,12.109188)"
     inkscape:transform-center-y="-0.22597876" />
</svg>
